<svg width="28" height="32" viewBox="0 0 28 32" fill="none" xmlns="http://www.w3.org/2000/svg">
<path fill-rule="evenodd" clip-rule="evenodd" d="M20.3738 7.75838C23.9354 7.75838 26.2118 11.1889 26.2118 11.1889C26.2118 11.1889 22.7398 13.0667 22.7398 17.1417C22.7398 21.9792 27.1036 23.3875 27.1036 23.3875C27.1036 23.3875 23.6596 31.5209 19.79 31.5209C17.6144 31.5209 17.4688 30.275 14.5778 30.275C12.0662 30.275 11.2206 31.5195 9.30817 31.5195C5.65697 31.5195 0.941772 23.5889 0.941772 17.1375C0.941772 10.4389 5.71577 7.7556 8.70897 7.7556C11.3368 7.7556 12.433 9.29727 14.547 9.29727C16.3292 9.29727 17.732 7.7556 20.3738 7.7556V7.75838ZM19.7606 0.925049C20.2828 4.21116 17.291 8.27227 13.7126 8.14033C13.1876 3.96394 17.0446 1.15005 19.7578 0.929216L19.7606 0.925049Z" fill="white"/>
</svg>
