<svg width="158" height="158" viewBox="0 0 158 158" fill="none" xmlns="http://www.w3.org/2000/svg">
<g filter="url(#filter0_d_2_2138)">
<circle cx="79" cy="75" r="74.5" fill="white" stroke="#0066FF"/>
<mask id="path-2-inside-1_2_2138" fill="white">
<path d="M108.783 76.9643C108.333 72.0393 107.591 71.0802 107.311 70.7194C106.667 69.8858 105.637 69.341 104.547 68.7694C104.485 68.7377 104.432 68.6923 104.392 68.6371C104.351 68.5818 104.324 68.5181 104.313 68.451C104.302 68.3839 104.307 68.3151 104.328 68.2503C104.349 68.1854 104.385 68.1262 104.433 68.0772C104.635 67.8776 104.79 67.6377 104.888 67.3741C104.986 67.1105 105.024 66.8294 105 66.5501C104.953 66.0548 104.716 65.5948 104.338 65.2614C103.959 64.928 103.466 64.7454 102.956 64.75H101.005C100.922 64.7505 100.838 64.7558 100.755 64.7658C100.698 64.7418 100.639 64.7226 100.579 64.7086C99.4239 62.3283 97.8424 59.0694 94.5644 57.4789C89.7024 55.1219 80.7461 55 78.9959 55C77.2456 55 68.2893 55.1219 63.4336 57.4753C60.1556 59.0657 58.5741 62.3247 57.4189 64.7049L57.4089 64.7244C57.3513 64.7323 57.2947 64.7462 57.2402 64.7658C57.1572 64.7558 57.0737 64.7505 56.9901 64.75H55.0361C54.5259 64.7454 54.0325 64.928 53.6539 65.2614C53.2753 65.5948 53.039 66.0548 52.992 66.5501C52.9698 66.8288 53.0096 67.1088 53.1086 67.3711C53.2077 67.6334 53.3636 67.8717 53.5659 68.0699C53.6142 68.1188 53.6503 68.1781 53.6712 68.243C53.692 68.3078 53.6972 68.3765 53.6861 68.4437C53.6751 68.5108 53.6482 68.5745 53.6076 68.6298C53.567 68.685 53.5137 68.7303 53.4521 68.7621C52.3619 69.3374 51.3268 69.8822 50.6879 70.7121C50.4079 71.0777 49.6678 72.032 49.2165 76.957C48.9664 79.7284 48.9289 82.5974 49.1252 84.445C49.5365 88.2841 50.3079 90.6046 50.3404 90.7008C50.4588 91.0512 50.6766 91.3617 50.9687 91.5962C51.2608 91.8307 51.6152 91.9796 51.9906 92.0256V92.05C51.9906 92.5672 52.2014 93.0632 52.5765 93.4289C52.9516 93.7946 53.4604 94 53.9909 94H60.992C61.5225 94 62.0313 93.7946 62.4064 93.4289C62.7815 93.0632 62.9923 92.5672 62.9923 92.05C64.0687 92.05 64.8175 91.8623 65.6114 91.6624C66.7575 91.3614 67.9291 91.1611 69.1119 91.064C72.9262 90.7094 76.7193 90.5875 78.9959 90.5875C81.2262 90.5875 85.1868 90.7094 89.0073 91.064C90.1948 91.1613 91.371 91.3624 92.5216 91.6649C93.2817 91.855 94.0031 92.0305 95.002 92.0488C95.002 92.566 95.2127 93.0619 95.5878 93.4276C95.963 93.7933 96.4717 93.9988 97.0023 93.9988H104.003C104.534 93.9988 105.043 93.7933 105.418 93.4276C105.793 93.0619 106.004 92.566 106.004 92.0488V92.0342C106.38 91.989 106.735 91.8405 107.028 91.6059C107.321 91.3714 107.54 91.0604 107.659 90.7094C107.691 90.6131 108.463 88.2926 108.874 84.4535C109.07 82.6047 109.035 79.7406 108.783 76.9643ZM61.0345 66.3722C62.0346 64.3003 63.1785 61.9554 65.2151 60.967C68.158 59.5386 74.2577 58.8951 78.9959 58.8951C83.7341 58.8951 89.8337 59.5338 92.7766 60.967C94.8132 61.9554 95.9521 64.3015 96.9572 66.3722L97.0823 66.6366C97.1554 66.7872 97.1877 66.9535 97.1761 67.1197C97.1646 67.2859 97.1095 67.4464 97.0163 67.586C96.923 67.7256 96.7946 67.8395 96.6433 67.917C96.4921 67.9944 96.3229 68.0328 96.1521 68.0284C91.9978 67.9187 83.2465 67.5677 78.9959 67.5677C74.7452 67.5677 65.9939 67.9273 61.8333 68.037C61.6625 68.0413 61.4934 68.0029 61.3421 67.9255C61.1909 67.848 61.0625 67.7341 60.9692 67.5945C60.8759 67.455 60.8209 67.2944 60.8093 67.1282C60.7978 66.962 60.8301 66.7957 60.9032 66.6452C60.947 66.555 60.9932 66.4636 61.0345 66.3722ZM62.5259 76.0771C60.3754 76.3294 58.2111 76.4539 56.045 76.45C54.7198 76.45 53.3533 76.0844 53.0995 74.9339C52.9258 74.16 52.9445 73.7249 53.0383 73.2873C53.117 72.9156 53.2421 72.6451 53.8672 72.55C55.4924 72.3062 56.4013 72.6122 59.0617 73.3763C60.8257 73.8821 62.0984 74.5561 62.8235 75.0899C63.1873 75.3531 62.9935 76.0405 62.5259 76.0771ZM90.2025 86.0708C88.5573 86.2536 85.2668 86.1866 79.0334 86.1866C72.7999 86.1866 69.5107 86.2536 67.8655 86.0708C66.1677 85.8868 64.0036 84.3219 65.4814 82.9277C66.4653 82.0087 68.7606 81.3213 71.8173 80.935C74.874 80.5487 76.1679 80.35 79.0209 80.35C81.8738 80.35 83.0364 80.4719 86.2244 80.9362C89.4124 81.4006 91.8215 82.0965 92.5604 82.9289C93.9081 84.4206 91.899 85.877 90.2025 86.0781V86.0708ZM104.892 74.9327C104.642 76.088 103.267 76.4488 101.947 76.4488C99.7392 76.4493 97.5335 76.3248 95.3408 76.0758C94.9582 76.0405 94.7807 75.386 95.1682 75.0887C95.8821 74.5414 97.1685 73.8809 98.93 73.3751C101.59 72.6109 103.124 72.305 104.442 72.5598C104.763 72.6219 104.933 72.9583 104.953 73.1691C105.042 73.7562 105.021 74.354 104.892 74.9339V74.9327Z"/>
</mask>
<path d="M108.783 76.9643C108.333 72.0393 107.591 71.0802 107.311 70.7194C106.667 69.8858 105.637 69.341 104.547 68.7694C104.485 68.7377 104.432 68.6923 104.392 68.6371C104.351 68.5818 104.324 68.5181 104.313 68.451C104.302 68.3839 104.307 68.3151 104.328 68.2503C104.349 68.1854 104.385 68.1262 104.433 68.0772C104.635 67.8776 104.79 67.6377 104.888 67.3741C104.986 67.1105 105.024 66.8294 105 66.5501C104.953 66.0548 104.716 65.5948 104.338 65.2614C103.959 64.928 103.466 64.7454 102.956 64.75H101.005C100.922 64.7505 100.838 64.7558 100.755 64.7658C100.698 64.7418 100.639 64.7226 100.579 64.7086C99.4239 62.3283 97.8424 59.0694 94.5644 57.4789C89.7024 55.1219 80.7461 55 78.9959 55C77.2456 55 68.2893 55.1219 63.4336 57.4753C60.1556 59.0657 58.5741 62.3247 57.4189 64.7049L57.4089 64.7244C57.3513 64.7323 57.2947 64.7462 57.2402 64.7658C57.1572 64.7558 57.0737 64.7505 56.9901 64.75H55.0361C54.5259 64.7454 54.0325 64.928 53.6539 65.2614C53.2753 65.5948 53.039 66.0548 52.992 66.5501C52.9698 66.8288 53.0096 67.1088 53.1086 67.3711C53.2077 67.6334 53.3636 67.8717 53.5659 68.0699C53.6142 68.1188 53.6503 68.1781 53.6712 68.243C53.692 68.3078 53.6972 68.3765 53.6861 68.4437C53.6751 68.5108 53.6482 68.5745 53.6076 68.6298C53.567 68.685 53.5137 68.7303 53.4521 68.7621C52.3619 69.3374 51.3268 69.8822 50.6879 70.7121C50.4079 71.0777 49.6678 72.032 49.2165 76.957C48.9664 79.7284 48.9289 82.5974 49.1252 84.445C49.5365 88.2841 50.3079 90.6046 50.3404 90.7008C50.4588 91.0512 50.6766 91.3617 50.9687 91.5962C51.2608 91.8307 51.6152 91.9796 51.9906 92.0256V92.05C51.9906 92.5672 52.2014 93.0632 52.5765 93.4289C52.9516 93.7946 53.4604 94 53.9909 94H60.992C61.5225 94 62.0313 93.7946 62.4064 93.4289C62.7815 93.0632 62.9923 92.5672 62.9923 92.05C64.0687 92.05 64.8175 91.8623 65.6114 91.6624C66.7575 91.3614 67.9291 91.1611 69.1119 91.064C72.9262 90.7094 76.7193 90.5875 78.9959 90.5875C81.2262 90.5875 85.1868 90.7094 89.0073 91.064C90.1948 91.1613 91.371 91.3624 92.5216 91.6649C93.2817 91.855 94.0031 92.0305 95.002 92.0488C95.002 92.566 95.2127 93.0619 95.5878 93.4276C95.963 93.7933 96.4717 93.9988 97.0023 93.9988H104.003C104.534 93.9988 105.043 93.7933 105.418 93.4276C105.793 93.0619 106.004 92.566 106.004 92.0488V92.0342C106.38 91.989 106.735 91.8405 107.028 91.6059C107.321 91.3714 107.54 91.0604 107.659 90.7094C107.691 90.6131 108.463 88.2926 108.874 84.4535C109.07 82.6047 109.035 79.7406 108.783 76.9643ZM61.0345 66.3722C62.0346 64.3003 63.1785 61.9554 65.2151 60.967C68.158 59.5386 74.2577 58.8951 78.9959 58.8951C83.7341 58.8951 89.8337 59.5338 92.7766 60.967C94.8132 61.9554 95.9521 64.3015 96.9572 66.3722L97.0823 66.6366C97.1554 66.7872 97.1877 66.9535 97.1761 67.1197C97.1646 67.2859 97.1095 67.4464 97.0163 67.586C96.923 67.7256 96.7946 67.8395 96.6433 67.917C96.4921 67.9944 96.3229 68.0328 96.1521 68.0284C91.9978 67.9187 83.2465 67.5677 78.9959 67.5677C74.7452 67.5677 65.9939 67.9273 61.8333 68.037C61.6625 68.0413 61.4934 68.0029 61.3421 67.9255C61.1909 67.848 61.0625 67.7341 60.9692 67.5945C60.8759 67.455 60.8209 67.2944 60.8093 67.1282C60.7978 66.962 60.8301 66.7957 60.9032 66.6452C60.947 66.555 60.9932 66.4636 61.0345 66.3722ZM62.5259 76.0771C60.3754 76.3294 58.2111 76.4539 56.045 76.45C54.7198 76.45 53.3533 76.0844 53.0995 74.9339C52.9258 74.16 52.9445 73.7249 53.0383 73.2873C53.117 72.9156 53.2421 72.6451 53.8672 72.55C55.4924 72.3062 56.4013 72.6122 59.0617 73.3763C60.8257 73.8821 62.0984 74.5561 62.8235 75.0899C63.1873 75.3531 62.9935 76.0405 62.5259 76.0771ZM90.2025 86.0708C88.5573 86.2536 85.2668 86.1866 79.0334 86.1866C72.7999 86.1866 69.5107 86.2536 67.8655 86.0708C66.1677 85.8868 64.0036 84.3219 65.4814 82.9277C66.4653 82.0087 68.7606 81.3213 71.8173 80.935C74.874 80.5487 76.1679 80.35 79.0209 80.35C81.8738 80.35 83.0364 80.4719 86.2244 80.9362C89.4124 81.4006 91.8215 82.0965 92.5604 82.9289C93.9081 84.4206 91.899 85.877 90.2025 86.0781V86.0708ZM104.892 74.9327C104.642 76.088 103.267 76.4488 101.947 76.4488C99.7392 76.4493 97.5335 76.3248 95.3408 76.0758C94.9582 76.0405 94.7807 75.386 95.1682 75.0887C95.8821 74.5414 97.1685 73.8809 98.93 73.3751C101.59 72.6109 103.124 72.305 104.442 72.5598C104.763 72.6219 104.933 72.9583 104.953 73.1691C105.042 73.7562 105.021 74.354 104.892 74.9339V74.9327Z" fill="#0066FF"/>
<path d="M108.783 76.9643L109.779 76.8737L109.779 76.8733L108.783 76.9643ZM107.311 70.7194L106.52 71.3307L106.521 71.3326L107.311 70.7194ZM104.547 68.7694L105.011 67.8838L105.005 67.8806L104.547 68.7694ZM104.433 68.0772L103.73 67.366L103.722 67.3743L104.433 68.0772ZM105 66.5501L105.996 66.4635L105.995 66.4556L105 66.5501ZM102.956 64.75V65.75L102.965 65.75L102.956 64.75ZM101.005 64.75V63.75L101 63.75L101.005 64.75ZM100.755 64.7658L100.366 65.6869L100.611 65.7907L100.876 65.7586L100.755 64.7658ZM100.579 64.7086L99.6794 65.1452L99.8877 65.5745L100.352 65.6826L100.579 64.7086ZM94.5644 57.4789L95.0009 56.5792L95.0006 56.5791L94.5644 57.4789ZM63.4336 57.4753L62.9974 56.5754L62.997 56.5756L63.4336 57.4753ZM57.4189 64.7049L58.3087 65.1613L58.3138 65.1515L58.3186 65.1415L57.4189 64.7049ZM57.4089 64.7244L57.5448 65.7151L58.0609 65.6444L58.2987 65.1808L57.4089 64.7244ZM57.2402 64.7658L57.1196 65.7586L57.3554 65.7872L57.5788 65.7068L57.2402 64.7658ZM56.9901 64.75L56.9959 63.75H56.9901V64.75ZM55.0361 64.75L55.0271 65.75H55.0361V64.75ZM52.992 66.5501L51.9965 66.4556L51.9958 66.4631L51.9952 66.4707L52.992 66.5501ZM53.5659 68.0699L54.2772 67.367L54.2715 67.3612L54.2657 67.3556L53.5659 68.0699ZM53.4521 68.7621L52.9939 67.8732L52.9854 67.8777L53.4521 68.7621ZM50.6879 70.7121L49.8955 70.1022L49.8941 70.1041L50.6879 70.7121ZM49.2165 76.957L48.2206 76.8657L48.2205 76.8671L49.2165 76.957ZM49.1252 84.445L48.1308 84.5506L48.1309 84.5515L49.1252 84.445ZM50.3404 90.7008L49.3929 91.0207L49.393 91.0209L50.3404 90.7008ZM51.9906 92.0256H52.9906V91.1408L52.1124 91.0331L51.9906 92.0256ZM51.9906 92.05H50.9906H51.9906ZM62.9923 92.05V91.05H61.9923V92.05H62.9923ZM65.6114 91.6624L65.8556 92.6322L65.8654 92.6296L65.6114 91.6624ZM69.1119 91.064L69.1937 92.0607L69.2045 92.0597L69.1119 91.064ZM89.0073 91.064L88.9149 92.0598L88.9257 92.0607L89.0073 91.064ZM92.5216 91.6649L92.2673 92.6321L92.2789 92.635L92.5216 91.6649ZM95.002 92.0488H96.002V91.0669L95.0203 91.049L95.002 92.0488ZM106.004 92.0342L105.884 91.0413L105.004 91.147V92.0342H106.004ZM107.659 90.7094L108.606 91.0298L108.606 91.0292L107.659 90.7094ZM108.874 84.4535L109.868 84.5601L109.868 84.5591L108.874 84.4535ZM61.0345 66.3722L60.1339 65.9374L60.1283 65.949L60.123 65.9608L61.0345 66.3722ZM65.2151 60.967L65.6517 61.8666L65.6517 61.8666L65.2151 60.967ZM92.7766 60.967L92.3388 61.8661L92.34 61.8666L92.7766 60.967ZM96.9572 66.3722L97.8614 65.9448L97.8569 65.9355L96.9572 66.3722ZM97.0823 66.6366L96.1781 67.064L96.1827 67.0734L97.0823 66.6366ZM96.1521 68.0284L96.1257 69.0281L96.1266 69.0281L96.1521 68.0284ZM61.8333 68.037L61.8588 69.0366L61.8597 69.0366L61.8333 68.037ZM60.9032 66.6452L61.8028 67.082L61.8029 67.0817L60.9032 66.6452ZM62.5259 76.0771L62.448 75.0801L62.4287 75.0816L62.4094 75.0839L62.5259 76.0771ZM56.045 76.45L56.0468 75.45H56.045V76.45ZM53.0995 74.9339L54.0761 74.7185L54.0753 74.7148L53.0995 74.9339ZM53.0383 73.2873L54.0161 73.4969L54.0166 73.4946L53.0383 73.2873ZM53.8672 72.55L53.7188 71.5611L53.7168 71.5614L53.8672 72.55ZM59.0617 73.3763L58.7856 74.3375L58.7861 74.3376L59.0617 73.3763ZM62.8235 75.0899L62.2306 75.8952L62.2373 75.9L62.8235 75.0899ZM90.2025 86.0708H91.2025V84.9535L90.0921 85.0769L90.2025 86.0708ZM67.8655 86.0708L67.9759 85.0769L67.9732 85.0766L67.8655 86.0708ZM65.4814 82.9277L64.7988 82.1968L64.7951 82.2003L65.4814 82.9277ZM92.5604 82.9289L91.8124 83.5927L91.8183 83.5992L92.5604 82.9289ZM90.2025 86.0781H89.2025V87.2037L90.3202 87.0712L90.2025 86.0781ZM104.892 74.9327H105.892L103.915 74.7211L104.892 74.9327ZM101.947 76.4488V75.4488H101.947L101.947 76.4488ZM95.3408 76.0758L95.4536 75.0822L95.4432 75.081L95.4328 75.0801L95.3408 76.0758ZM95.1682 75.0887L94.5598 74.295L94.5595 74.2953L95.1682 75.0887ZM98.93 73.3751L99.206 74.3363L99.2061 74.3362L98.93 73.3751ZM104.442 72.5598L104.632 71.578L104.632 71.5779L104.442 72.5598ZM104.953 73.1691L103.958 73.2636L103.96 73.2907L103.965 73.3177L104.953 73.1691ZM104.892 74.9339H103.892L105.868 75.1505L104.892 74.9339ZM109.779 76.8733C109.322 71.8797 108.556 70.6916 108.101 70.1062L106.521 71.3326C106.627 71.4688 107.343 72.199 107.787 77.0553L109.779 76.8733ZM108.103 70.1082C107.3 69.0686 106.051 68.429 105.011 67.8838L104.083 69.6551C105.223 70.2531 106.035 70.703 106.52 71.3307L108.103 70.1082ZM105.005 67.8806C105.079 67.9187 105.146 67.9743 105.197 68.0449L103.586 69.2292C103.719 69.4104 103.892 69.5566 104.089 69.6583L105.005 67.8806ZM105.197 68.0449C105.249 68.1157 105.285 68.199 105.3 68.2888L103.326 68.6131C103.363 68.8372 103.453 69.048 103.586 69.2292L105.197 68.0449ZM105.3 68.2888C105.315 68.3786 105.308 68.4705 105.28 68.5565L103.376 67.944C103.307 68.1598 103.29 68.3891 103.326 68.6131L105.3 68.2888ZM105.28 68.5565C105.252 68.6425 105.205 68.7187 105.145 68.7801L103.722 67.3743C103.565 67.5336 103.445 67.7283 103.376 67.944L105.28 68.5565ZM105.136 68.7883C105.441 68.4872 105.677 68.1236 105.826 67.7218L103.951 67.0264C103.904 67.1519 103.829 67.268 103.73 67.3661L105.136 68.7883ZM105.826 67.7218C105.975 67.32 106.033 66.8906 105.996 66.4635L104.003 66.6367C104.015 66.7683 103.997 66.9011 103.951 67.0264L105.826 67.7218ZM105.995 66.4556C105.924 65.7031 105.565 65.0099 104.999 64.5109L103.677 66.0119C103.868 66.1798 103.982 66.4065 104.004 66.6446L105.995 66.4556ZM104.999 64.5109C104.433 64.0126 103.7 63.7433 102.947 63.75L102.965 65.75C103.231 65.7476 103.486 65.8433 103.677 66.0119L104.999 64.5109ZM102.956 63.75H101.005V65.75H102.956V63.75ZM101 63.75C100.878 63.7507 100.756 63.7584 100.635 63.7731L100.876 65.7586C100.921 65.7531 100.966 65.7502 101.011 65.75L101 63.75ZM101.145 63.8448C101.035 63.7984 100.922 63.7615 100.806 63.7346L100.352 65.6826C100.357 65.6837 100.362 65.6851 100.366 65.6869L101.145 63.8448ZM101.479 64.2719C100.345 61.9363 98.6354 58.3427 95.0009 56.5792L94.1279 58.3786C97.0493 59.7961 98.5026 62.7204 99.6794 65.1452L101.479 64.2719ZM95.0006 56.5791C92.4045 55.3205 88.803 54.6882 85.7187 54.3611C82.6046 54.0309 79.8895 54 78.9959 54V56C79.8525 56 82.4906 56.03 85.5078 56.35C88.5547 56.6731 91.8624 57.2803 94.1282 58.3788L95.0006 56.5791ZM78.9959 54C78.1022 54 75.3871 54.0309 72.2739 54.3607C69.1906 54.6873 65.5905 55.3186 62.9974 56.5754L63.8697 58.3752C66.1323 57.2786 69.4383 56.6722 72.4846 56.3495C75.501 56.03 78.1392 56 78.9959 56V54ZM62.997 56.5756C59.3625 58.3391 57.6528 61.9327 56.5193 64.2683L58.3186 65.1415C59.4954 62.7167 60.9487 59.7924 63.8701 58.375L62.997 56.5756ZM56.5292 64.2485L56.5192 64.268L58.2987 65.1808L58.3087 65.1613L56.5292 64.2485ZM57.2731 63.7337C57.1465 63.751 57.0219 63.7816 56.9015 63.8249L57.5788 65.7068C57.5676 65.7108 57.5562 65.7136 57.5448 65.7151L57.2731 63.7337ZM57.3607 63.7731C57.2396 63.7584 57.1178 63.7507 56.9959 63.75L56.9843 65.75C57.0296 65.7502 57.0748 65.7531 57.1196 65.7586L57.3607 63.7731ZM56.9901 63.75H55.0361V65.75H56.9901V63.75ZM55.045 63.75C54.2915 63.7433 53.5589 64.0126 52.993 64.5109L54.3148 66.0119C54.5062 65.8433 54.7602 65.7476 55.0271 65.75L55.045 63.75ZM52.993 64.5109C52.4265 65.0099 52.0679 65.7031 51.9965 66.4556L53.9876 66.6446C54.0102 66.4065 54.1241 66.1798 54.3148 66.0119L52.993 64.5109ZM51.9952 66.4707C51.9612 66.8967 52.0221 67.3245 52.1731 67.7243L54.0442 67.0179C53.9971 66.8931 53.9784 66.7608 53.9889 66.6295L51.9952 66.4707ZM52.1731 67.7243C52.324 68.1241 52.561 68.4853 52.866 68.7842L54.2657 67.3556C54.1663 67.2582 54.0913 67.1427 54.0442 67.0179L52.1731 67.7243ZM52.8545 68.7727C52.7939 68.7114 52.7469 68.6352 52.7192 68.5492L54.6231 67.9367C54.5537 67.721 54.4346 67.5263 54.2772 67.367L52.8545 68.7727ZM52.7192 68.5492C52.6915 68.4632 52.6846 68.3713 52.6994 68.2815L54.6729 68.6058C54.7097 68.3817 54.6925 68.1525 54.6231 67.9367L52.7192 68.5492ZM52.6994 68.2815C52.7141 68.1917 52.7498 68.1083 52.8018 68.0376L54.4134 69.2219C54.5466 69.0407 54.6361 68.8299 54.6729 68.6058L52.6994 68.2815ZM52.8018 68.0376C52.8536 67.967 52.9199 67.9114 52.9939 67.8733L53.9103 69.651C54.1075 69.5493 54.2803 69.4031 54.4134 69.2219L52.8018 68.0376ZM52.9854 67.8777C51.9509 68.4236 50.6938 69.065 49.8955 70.1022L51.4804 71.3221C51.9597 70.6993 52.773 70.2512 53.9188 69.6465L52.9854 67.8777ZM49.8941 70.1041C49.4446 70.6908 48.6785 71.869 48.2206 76.8657L50.2123 77.0483C50.657 72.1951 51.3712 71.4647 51.4818 71.3202L49.8941 70.1041ZM48.2205 76.8671C47.9673 79.6737 47.925 82.6137 48.1308 84.5506L50.1196 84.3394C49.9328 82.581 49.9656 79.7832 50.2124 77.0469L48.2205 76.8671ZM48.1309 84.5515C48.5515 88.4777 49.3422 90.8706 49.3929 91.0207L51.2879 90.381C51.2735 90.3386 50.5215 88.0904 50.1195 84.3385L48.1309 84.5515ZM49.393 91.0209C49.5733 91.5545 49.9039 92.0237 50.3427 92.376L51.5948 90.8164C51.4494 90.6997 51.3443 90.5479 51.2878 90.3808L49.393 91.0209ZM50.3427 92.376C50.7814 92.7281 51.3108 92.9497 51.8689 93.0182L52.1124 91.0331C51.9196 91.0094 51.7403 90.9332 51.5948 90.8164L50.3427 92.376ZM50.9906 92.0256V92.05H52.9906V92.0256H50.9906ZM50.9906 92.05C50.9906 92.8407 51.3131 93.5938 51.8785 94.1449L53.2746 92.7128C53.0897 92.5326 52.9906 92.2936 52.9906 92.05H50.9906ZM51.8785 94.1449C52.443 94.6952 53.2033 95 53.9909 95V93C53.7175 93 53.4603 92.8939 53.2746 92.7128L51.8785 94.1449ZM53.9909 95H60.992V93H53.9909V95ZM60.992 95C61.7796 95 62.5399 94.6952 63.1044 94.1449L61.7083 92.7128C61.5226 92.8939 61.2654 93 60.992 93V95ZM63.1044 94.1449C63.6698 93.5938 63.9923 92.8407 63.9923 92.05H61.9923C61.9923 92.2936 61.8932 92.5326 61.7083 92.7128L63.1044 94.1449ZM62.9923 93.05C64.2012 93.05 65.0526 92.8343 65.8555 92.6322L65.3672 90.6927C64.5824 90.8903 63.9362 91.05 62.9923 91.05V93.05ZM65.8654 92.6296C66.9551 92.3434 68.0689 92.153 69.1937 92.0607L69.0301 90.0674C67.7892 90.1692 66.56 90.3793 65.3573 90.6953L65.8654 92.6296ZM69.2045 92.0597C72.9846 91.7083 76.7466 91.5875 78.9959 91.5875V89.5875C76.692 89.5875 72.8678 89.7105 69.0193 90.0683L69.2045 92.0597ZM78.9959 91.5875C81.2001 91.5875 85.1295 91.7084 88.9149 92.0598L89.0998 90.0683C85.244 89.7104 81.2522 89.5875 78.9959 89.5875V91.5875ZM88.9257 92.0607C90.055 92.1532 91.1734 92.3444 92.2674 92.632L92.7758 90.6977C91.5686 90.3804 90.3347 90.1694 89.089 90.0674L88.9257 92.0607ZM92.2789 92.635C93.049 92.8276 93.8638 93.0281 94.9837 93.0486L95.0203 91.049C94.1424 91.0329 93.5144 90.8824 92.7642 90.6948L92.2789 92.635ZM94.002 92.0488C94.002 92.8395 94.3244 93.5925 94.8898 94.1437L96.2859 92.7116C96.101 92.5314 96.002 92.2924 96.002 92.0488H94.002ZM94.8898 94.1437C95.4543 94.694 96.2146 94.9988 97.0023 94.9988V92.9988C96.7289 92.9988 96.4716 92.8927 96.2859 92.7116L94.8898 94.1437ZM97.0023 94.9988H104.003V92.9988H97.0023V94.9988ZM104.003 94.9988C104.791 94.9988 105.551 94.694 106.116 94.1437L104.72 92.7116C104.534 92.8927 104.277 92.9988 104.003 92.9988V94.9988ZM106.116 94.1437C106.681 93.5925 107.004 92.8395 107.004 92.0488H105.004C105.004 92.2924 104.905 92.5314 104.72 92.7116L106.116 94.1437ZM107.004 92.0488V92.0342H105.004V92.0488H107.004ZM106.123 93.027C106.682 92.9599 107.213 92.7388 107.653 92.3866L106.404 90.8252C106.257 90.9421 106.078 91.0181 105.884 91.0413L106.123 93.027ZM107.653 92.3866C108.094 92.0343 108.425 91.5644 108.606 91.0298L106.712 90.389C106.655 90.5565 106.549 90.7085 106.404 90.8252L107.653 92.3866ZM108.606 91.0292C108.657 90.8791 109.448 88.4862 109.868 84.5601L107.88 84.347C107.478 88.099 106.726 90.3471 106.711 90.3895L108.606 91.0292ZM109.868 84.5591C110.074 82.6214 110.034 79.6864 109.779 76.8737L107.787 77.0549C108.036 79.7949 108.066 82.5879 107.88 84.348L109.868 84.5591ZM61.935 66.8069C62.4403 65.7602 62.945 64.7252 63.5603 63.8295C64.1728 62.938 64.848 62.2567 65.6517 61.8666L64.7785 60.0674C63.5456 60.6657 62.6305 61.651 61.9119 62.697C61.1961 63.7388 60.6288 64.9122 60.1339 65.9374L61.935 66.8069ZM65.6517 61.8666C66.9752 61.2243 69.106 60.7224 71.5676 60.3862C74.0031 60.0536 76.6671 59.8951 78.9959 59.8951V57.8951C76.5864 57.8951 73.8315 58.0584 71.2969 58.4046C68.7884 58.7473 66.3979 59.2814 64.7784 60.0674L65.6517 61.8666ZM78.9959 59.8951C81.325 59.8951 83.989 60.0524 86.4244 60.3844C88.886 60.72 91.016 61.2218 92.3388 61.866L93.2145 60.068C91.5943 59.2789 89.2031 58.7448 86.6946 58.4028C84.1599 58.0572 81.405 57.8951 78.9959 57.8951V59.8951ZM92.34 61.8666C93.1432 62.2565 93.8171 62.9376 94.4292 63.8296C95.0445 64.7261 95.549 65.761 96.0576 66.8088L97.8569 65.9355C97.3604 64.9127 96.7929 63.7392 96.0782 62.6979C95.3605 61.652 94.4466 60.6659 93.2133 60.0674L92.34 61.8666ZM96.0532 66.7995L96.1782 67.064L97.9863 66.2093L97.8613 65.9448L96.0532 66.7995ZM96.1827 67.0734C96.1798 67.0675 96.1779 67.0594 96.1785 67.0503L98.1737 67.189C98.1975 66.8476 98.1309 66.5069 97.9818 66.1998L96.1827 67.0734ZM96.1785 67.0503C96.1792 67.0413 96.1821 67.0345 96.1848 67.0304L97.8477 68.1416C98.037 67.8584 98.15 67.5304 98.1737 67.189L96.1785 67.0503ZM96.1848 67.0304C96.1875 67.0264 96.1891 67.026 96.1876 67.0268L97.0991 68.8071C97.4001 68.653 97.6585 68.4247 97.8477 68.1416L96.1848 67.0304ZM96.1876 67.0268C96.1859 67.0277 96.1823 67.0289 96.1776 67.0288L96.1266 69.0281C96.4636 69.0367 96.7982 68.9611 97.0991 68.8071L96.1876 67.0268ZM96.1785 67.0288C92.0561 66.9199 83.2629 66.5677 78.9959 66.5677V68.5677C83.2301 68.5677 91.9394 68.9176 96.1257 69.0281L96.1785 67.0288ZM78.9959 66.5677C74.7293 66.5677 65.9335 66.9285 61.807 67.0373L61.8597 69.0366C66.0544 68.926 74.7612 68.5677 78.9959 68.5677V66.5677ZM61.8078 67.0373C61.8031 67.0374 61.7996 67.0363 61.7979 67.0354L60.8864 68.8156C61.1872 68.9696 61.5219 69.0452 61.8588 69.0366L61.8078 67.0373ZM61.7979 67.0354C61.7963 67.0346 61.798 67.0349 61.8006 67.0389L60.1378 68.1502C60.3269 68.4332 60.5854 68.6615 60.8864 68.8156L61.7979 67.0354ZM61.8006 67.0389C61.8034 67.043 61.8063 67.0499 61.8069 67.0589L59.8117 67.1976C59.8355 67.539 59.9485 67.8669 60.1378 68.1502L61.8006 67.0389ZM61.8069 67.0589C61.8075 67.0679 61.8056 67.076 61.8028 67.082L60.0036 66.2084C59.8545 66.5154 59.788 66.8561 59.8117 67.1976L61.8069 67.0589ZM61.8029 67.0817C61.8366 67.0121 61.8971 66.8917 61.9459 66.7835L60.123 65.9608C60.0893 66.0354 60.0573 66.0978 60.0035 66.2086L61.8029 67.0817ZM62.4094 75.0839C60.2981 75.3316 58.1733 75.4539 56.0468 75.45L56.0432 77.45C58.2488 77.454 60.4526 77.3272 62.6425 77.0702L62.4094 75.0839ZM56.045 75.45C55.4553 75.45 54.9351 75.366 54.5705 75.2069C54.2272 75.0571 54.1139 74.8901 54.0761 74.7185L52.123 75.1493C52.339 76.1282 53.0358 76.7193 53.7705 77.0399C54.4839 77.3512 55.3095 77.45 56.045 77.45V75.45ZM54.0753 74.7148C53.9283 74.0605 53.9569 73.7731 54.0161 73.4969L52.0605 73.0778C51.9321 73.6767 51.9232 74.2594 52.1238 75.153L54.0753 74.7148ZM54.0166 73.4946C54.0236 73.4615 54.029 73.4395 54.0333 73.4244C54.0375 73.4095 54.0393 73.4057 54.0379 73.4093C54.0362 73.4132 54.0307 73.4258 54.0198 73.4434C54.0086 73.4615 53.9934 73.4819 53.9742 73.5023C53.9548 73.5227 53.9354 73.5388 53.9183 73.5505C53.9016 73.562 53.8906 73.5671 53.889 73.5678C53.8878 73.5683 53.8961 73.5646 53.9175 73.5588C53.9389 73.5529 53.9714 73.5457 54.0175 73.5386L53.7168 71.5614C53.2849 71.627 52.8517 71.7787 52.5215 72.1276C52.202 72.4652 52.1065 72.8605 52.06 73.0801L54.0166 73.4946ZM54.0155 73.5389C55.3831 73.3338 56.0667 73.5565 58.7856 74.3375L59.3377 72.4152C56.7358 71.6678 55.6016 71.2787 53.7188 71.5611L54.0155 73.5389ZM58.7861 74.3376C60.455 74.8161 61.6159 75.4427 62.2306 75.8952L63.4163 74.2846C62.5808 73.6695 61.1964 72.9481 59.3373 72.415L58.7861 74.3376ZM62.2373 75.9C61.9731 75.7089 62.0094 75.4466 62.0269 75.3869C62.047 75.3187 62.1552 75.103 62.448 75.0801L62.6039 77.074C63.3643 77.0146 63.8032 76.4369 63.946 75.95C64.0864 75.4717 64.0376 74.7341 63.4097 74.2797L62.2373 75.9ZM90.0921 85.0769C88.5201 85.2516 85.3318 85.1866 79.0334 85.1866V87.1866C85.2018 87.1866 88.5944 87.2556 90.3129 87.0647L90.0921 85.0769ZM79.0334 85.1866C72.7349 85.1866 69.5479 85.2516 67.9759 85.0769L67.755 87.0647C69.4735 87.2556 72.8649 87.1866 79.0334 87.1866V85.1866ZM67.9732 85.0766C67.3271 85.0066 66.5882 84.6582 66.2018 84.2583C66.0153 84.0652 65.9915 83.9456 65.9898 83.9187C65.9892 83.9097 65.9889 83.8947 66.0029 83.8636C66.0187 83.8282 66.0606 83.756 66.1676 83.655L64.7951 82.2003C64.2593 82.7058 63.9497 83.3393 63.9937 84.0435C64.0352 84.7079 64.3814 85.2524 64.7634 85.6479C65.5141 86.425 66.7061 86.951 67.7577 87.065L67.9732 85.0766ZM66.1639 83.6585C66.4904 83.3535 67.1377 83.0067 68.1686 82.6866C69.1746 82.3742 70.4516 82.1156 71.9427 81.9271L71.6919 79.9429C70.1263 80.1408 68.7272 80.419 67.5755 80.7766C66.4486 81.1265 65.4562 81.5829 64.7988 82.1968L66.1639 83.6585ZM71.9427 81.9271C75.0053 81.54 76.2397 81.35 79.0209 81.35V79.35C76.0961 79.35 74.7427 79.5573 71.6919 79.9429L71.9427 81.9271ZM79.0209 81.35C81.8107 81.35 82.9227 81.4659 86.0803 81.9258L86.3686 79.9467C83.1502 79.4779 81.9369 79.35 79.0209 79.35V81.35ZM86.0803 81.9258C87.6455 82.1538 88.9902 82.4347 90.0169 82.7504C90.5304 82.9082 90.9452 83.069 91.2602 83.2263C91.5866 83.3893 91.7483 83.5204 91.8125 83.5927L93.3082 82.265C93.003 81.9211 92.5864 81.6531 92.1537 81.437C91.7096 81.2152 91.1843 81.0169 90.6047 80.8387C89.4452 80.4822 87.9913 80.183 86.3686 79.9467L86.0803 81.9258ZM91.8183 83.5992C92.0106 83.8121 92.0035 83.9243 92.0017 83.9497C91.998 84.0001 91.966 84.1215 91.7973 84.2994C91.4412 84.6751 90.7464 85.0067 90.0848 85.0851L90.3202 87.0712C91.3551 86.9485 92.5131 86.4513 93.2487 85.6755C93.6258 85.2778 93.9494 84.7428 93.9964 84.0943C94.0453 83.4208 93.7839 82.7915 93.3024 82.2585L91.8183 83.5992ZM91.2025 86.0781V86.0708H89.2025V86.0781H91.2025ZM103.915 74.7211C103.878 74.8912 103.767 75.0572 103.422 75.2068C103.057 75.3657 102.535 75.4488 101.947 75.4488V77.4488C102.679 77.4488 103.505 77.3515 104.219 77.0412C104.955 76.7215 105.656 76.1294 105.87 75.1442L103.915 74.7211ZM101.947 75.4488C99.7767 75.4493 97.6087 75.3269 95.4536 75.0822L95.228 77.0695C97.4582 77.3226 99.7017 77.4493 101.947 77.4488L101.947 75.4488ZM95.4328 75.0801C95.6269 75.098 95.7645 75.1949 95.8386 75.2766C95.9077 75.3528 95.9337 75.4249 95.9437 75.472C95.9616 75.5556 95.9549 75.7455 95.777 75.882L94.5595 74.2953C93.994 74.7292 93.8823 75.395 93.9877 75.8891C94.0829 76.3357 94.4576 76.9985 95.2488 77.0716L95.4328 75.0801ZM95.7766 75.8823C96.3639 75.4321 97.5268 74.8184 99.206 74.3363L98.6541 72.4139C96.8103 72.9433 95.4002 73.6508 94.5598 74.295L95.7766 75.8823ZM99.2061 74.3362C101.9 73.5626 103.206 73.3393 104.252 73.5416L104.632 71.5779C103.043 71.2708 101.281 71.6593 98.654 72.414L99.2061 74.3362ZM104.252 73.5415C104.099 73.5119 104.02 73.4224 103.999 73.3932C103.988 73.377 103.981 73.3634 103.976 73.3509C103.972 73.3406 103.963 73.3127 103.958 73.2636L105.949 73.0747C105.921 72.7845 105.806 72.4798 105.622 72.2241C105.431 71.9585 105.106 71.6697 104.632 71.578L104.252 73.5415ZM103.965 73.3177C104.034 73.7832 104.018 74.2572 103.916 74.7172L105.868 75.1505C106.024 74.4507 106.049 73.7292 105.942 73.0206L103.965 73.3177ZM105.892 74.9339V74.9327H103.892V74.9339H105.892Z" fill="#0066FF" mask="url(#path-2-inside-1_2_2138)"/>
</g>
<defs>
<filter id="filter0_d_2_2138" x="0" y="0" width="158" height="158" filterUnits="userSpaceOnUse" color-interpolation-filters="sRGB">
<feFlood flood-opacity="0" result="BackgroundImageFix"/>
<feColorMatrix in="SourceAlpha" type="matrix" values="0 0 0 0 0 0 0 0 0 0 0 0 0 0 0 0 0 0 127 0" result="hardAlpha"/>
<feOffset dy="4"/>
<feGaussianBlur stdDeviation="2"/>
<feComposite in2="hardAlpha" operator="out"/>
<feColorMatrix type="matrix" values="0 0 0 0 0 0 0 0 0 0 0 0 0 0 0 0 0 0 0.25 0"/>
<feBlend mode="normal" in2="BackgroundImageFix" result="effect1_dropShadow_2_2138"/>
<feBlend mode="normal" in="SourceGraphic" in2="effect1_dropShadow_2_2138" result="shape"/>
</filter>
</defs>
</svg>
